<svg width="15" height="13" viewBox="0 0 15 13" fill="none" xmlns="http://www.w3.org/2000/svg">
<path d="M14.5757 6.46882C14.5757 6.92455 14.196 7.28154 13.7656 7.28154H12.9554L12.9731 11.3375C12.9731 11.4059 12.968 11.4742 12.9604 11.5426V11.9528C12.9604 12.5123 12.5072 12.9655 11.9477 12.9655H11.5426C11.5148 12.9655 11.4869 12.9655 11.4591 12.963C11.4236 12.9655 11.3882 12.9655 11.3527 12.9655L10.5299 12.963H9.92224C9.3627 12.963 8.90951 12.5098 8.90951 11.9502V11.3426V9.72222C8.90951 9.27409 8.54745 8.91204 8.09932 8.91204H6.47895C6.03082 8.91204 5.66876 9.27409 5.66876 9.72222V11.3426V11.9502C5.66876 12.5098 5.21557 12.963 4.65603 12.963H4.04839H3.24074C3.20276 12.963 3.16479 12.9604 3.12681 12.9579C3.09643 12.9604 3.06604 12.963 3.03566 12.963H2.63057C2.07104 12.963 1.61784 12.5098 1.61784 11.9502V9.11458C1.61784 9.0918 1.61784 9.06648 1.62037 9.04369V7.27901H0.810185C0.354456 7.27901 0 6.92455 0 6.46629C0 6.23843 0.0759549 6.03588 0.253183 5.85865L6.74226 0.202546C6.91949 0.0253183 7.12203 0 7.29926 0C7.47649 0 7.67904 0.0506366 7.83095 0.177228L14.2972 5.86118C14.4998 6.03841 14.6011 6.24096 14.5757 6.46882Z" fill="#F4F4F5"/>
</svg>
